<mxfile host="app.diagrams.net" modified="2024-03-19T07:14:06.302Z" agent="Mozilla/5.0 (Windows NT 10.0; Win64; x64) AppleWebKit/537.36 (KHTML, like Gecko) Chrome/122.0.0.0 Safari/537.36 Edg/122.0.0.0" etag="5S3WOo2Fd2hCe2Z2Woqn" version="24.0.7" type="device">
  <diagram name="Page-1" id="V6NyLrWdh99PHH9ukODJ">
    <mxGraphModel dx="2339" dy="1913" grid="1" gridSize="10" guides="1" tooltips="1" connect="1" arrows="1" fold="1" page="1" pageScale="1" pageWidth="850" pageHeight="1100" math="0" shadow="0">
      <root>
        <mxCell id="0" />
        <mxCell id="1" parent="0" />
        <mxCell id="AwUA0kpNcjqZr8ADlNqD-1" value="Banners" style="rounded=0;whiteSpace=wrap;html=1;" vertex="1" parent="1">
          <mxGeometry x="265" y="240" width="80" height="40" as="geometry" />
        </mxCell>
        <mxCell id="AwUA0kpNcjqZr8ADlNqD-89" style="edgeStyle=none;rounded=0;orthogonalLoop=1;jettySize=auto;html=1;exitX=0;exitY=1;exitDx=0;exitDy=0;entryX=0.5;entryY=0;entryDx=0;entryDy=0;strokeColor=default;align=center;verticalAlign=middle;fontFamily=Helvetica;fontSize=11;fontColor=default;labelBackgroundColor=default;endArrow=none;endFill=0;" edge="1" parent="1" source="AwUA0kpNcjqZr8ADlNqD-3" target="AwUA0kpNcjqZr8ADlNqD-83">
          <mxGeometry relative="1" as="geometry" />
        </mxCell>
        <mxCell id="AwUA0kpNcjqZr8ADlNqD-91" style="edgeStyle=none;rounded=0;orthogonalLoop=1;jettySize=auto;html=1;exitX=0;exitY=1;exitDx=0;exitDy=0;entryX=0.5;entryY=0;entryDx=0;entryDy=0;strokeColor=default;align=center;verticalAlign=middle;fontFamily=Helvetica;fontSize=11;fontColor=default;labelBackgroundColor=default;endArrow=none;endFill=0;" edge="1" parent="1" source="AwUA0kpNcjqZr8ADlNqD-3" target="AwUA0kpNcjqZr8ADlNqD-85">
          <mxGeometry relative="1" as="geometry" />
        </mxCell>
        <mxCell id="AwUA0kpNcjqZr8ADlNqD-92" style="edgeStyle=none;rounded=0;orthogonalLoop=1;jettySize=auto;html=1;exitX=0;exitY=1;exitDx=0;exitDy=0;entryX=0.5;entryY=0;entryDx=0;entryDy=0;strokeColor=default;align=center;verticalAlign=middle;fontFamily=Helvetica;fontSize=11;fontColor=default;labelBackgroundColor=default;endArrow=none;endFill=0;" edge="1" parent="1" source="AwUA0kpNcjqZr8ADlNqD-3" target="AwUA0kpNcjqZr8ADlNqD-86">
          <mxGeometry relative="1" as="geometry" />
        </mxCell>
        <mxCell id="AwUA0kpNcjqZr8ADlNqD-93" style="edgeStyle=none;rounded=0;orthogonalLoop=1;jettySize=auto;html=1;exitX=0;exitY=1;exitDx=0;exitDy=0;entryX=0;entryY=0;entryDx=0;entryDy=0;strokeColor=default;align=center;verticalAlign=middle;fontFamily=Helvetica;fontSize=11;fontColor=default;labelBackgroundColor=default;endArrow=none;endFill=0;" edge="1" parent="1" source="AwUA0kpNcjqZr8ADlNqD-3" target="AwUA0kpNcjqZr8ADlNqD-84">
          <mxGeometry relative="1" as="geometry" />
        </mxCell>
        <mxCell id="AwUA0kpNcjqZr8ADlNqD-94" style="edgeStyle=none;rounded=0;orthogonalLoop=1;jettySize=auto;html=1;exitX=0;exitY=1;exitDx=0;exitDy=0;entryX=0;entryY=0;entryDx=0;entryDy=0;strokeColor=default;align=center;verticalAlign=middle;fontFamily=Helvetica;fontSize=11;fontColor=default;labelBackgroundColor=default;endArrow=none;endFill=0;" edge="1" parent="1" source="AwUA0kpNcjqZr8ADlNqD-3" target="AwUA0kpNcjqZr8ADlNqD-87">
          <mxGeometry relative="1" as="geometry" />
        </mxCell>
        <mxCell id="AwUA0kpNcjqZr8ADlNqD-3" value="Seeds" style="rounded=0;whiteSpace=wrap;html=1;" vertex="1" parent="1">
          <mxGeometry x="385" y="310" width="80" height="40" as="geometry" />
        </mxCell>
        <mxCell id="AwUA0kpNcjqZr8ADlNqD-61" style="edgeStyle=none;rounded=0;orthogonalLoop=1;jettySize=auto;html=1;exitX=1;exitY=0;exitDx=0;exitDy=0;entryX=0.5;entryY=1;entryDx=0;entryDy=0;strokeColor=default;align=center;verticalAlign=middle;fontFamily=Helvetica;fontSize=11;fontColor=default;labelBackgroundColor=default;endArrow=none;endFill=0;" edge="1" parent="1" source="AwUA0kpNcjqZr8ADlNqD-4" target="AwUA0kpNcjqZr8ADlNqD-53">
          <mxGeometry relative="1" as="geometry" />
        </mxCell>
        <mxCell id="AwUA0kpNcjqZr8ADlNqD-62" style="edgeStyle=none;rounded=0;orthogonalLoop=1;jettySize=auto;html=1;exitX=1;exitY=0;exitDx=0;exitDy=0;entryX=0.5;entryY=1;entryDx=0;entryDy=0;strokeColor=default;align=center;verticalAlign=middle;fontFamily=Helvetica;fontSize=11;fontColor=default;labelBackgroundColor=default;endArrow=none;endFill=0;" edge="1" parent="1" source="AwUA0kpNcjqZr8ADlNqD-4" target="AwUA0kpNcjqZr8ADlNqD-54">
          <mxGeometry relative="1" as="geometry" />
        </mxCell>
        <mxCell id="AwUA0kpNcjqZr8ADlNqD-63" style="edgeStyle=none;rounded=0;orthogonalLoop=1;jettySize=auto;html=1;exitX=1;exitY=0;exitDx=0;exitDy=0;entryX=0;entryY=1;entryDx=0;entryDy=0;strokeColor=default;align=center;verticalAlign=middle;fontFamily=Helvetica;fontSize=11;fontColor=default;labelBackgroundColor=default;endArrow=none;endFill=0;" edge="1" parent="1" source="AwUA0kpNcjqZr8ADlNqD-4" target="AwUA0kpNcjqZr8ADlNqD-58">
          <mxGeometry relative="1" as="geometry" />
        </mxCell>
        <mxCell id="AwUA0kpNcjqZr8ADlNqD-64" style="edgeStyle=none;rounded=0;orthogonalLoop=1;jettySize=auto;html=1;exitX=1;exitY=0;exitDx=0;exitDy=0;entryX=0;entryY=0.5;entryDx=0;entryDy=0;strokeColor=default;align=center;verticalAlign=middle;fontFamily=Helvetica;fontSize=11;fontColor=default;labelBackgroundColor=default;endArrow=none;endFill=0;" edge="1" parent="1" source="AwUA0kpNcjqZr8ADlNqD-4" target="AwUA0kpNcjqZr8ADlNqD-55">
          <mxGeometry relative="1" as="geometry" />
        </mxCell>
        <mxCell id="AwUA0kpNcjqZr8ADlNqD-65" style="edgeStyle=none;rounded=0;orthogonalLoop=1;jettySize=auto;html=1;exitX=1;exitY=0;exitDx=0;exitDy=0;entryX=0;entryY=0.5;entryDx=0;entryDy=0;strokeColor=default;align=center;verticalAlign=middle;fontFamily=Helvetica;fontSize=11;fontColor=default;labelBackgroundColor=default;endArrow=none;endFill=0;" edge="1" parent="1" source="AwUA0kpNcjqZr8ADlNqD-4" target="AwUA0kpNcjqZr8ADlNqD-56">
          <mxGeometry relative="1" as="geometry" />
        </mxCell>
        <mxCell id="AwUA0kpNcjqZr8ADlNqD-66" style="edgeStyle=none;rounded=0;orthogonalLoop=1;jettySize=auto;html=1;exitX=1;exitY=0;exitDx=0;exitDy=0;entryX=0;entryY=0.5;entryDx=0;entryDy=0;strokeColor=default;align=center;verticalAlign=middle;fontFamily=Helvetica;fontSize=11;fontColor=default;labelBackgroundColor=default;endArrow=none;endFill=0;" edge="1" parent="1" source="AwUA0kpNcjqZr8ADlNqD-4" target="AwUA0kpNcjqZr8ADlNqD-57">
          <mxGeometry relative="1" as="geometry" />
        </mxCell>
        <mxCell id="AwUA0kpNcjqZr8ADlNqD-4" value="Products" style="rounded=0;whiteSpace=wrap;html=1;" vertex="1" parent="1">
          <mxGeometry x="670" y="80" width="80" height="40" as="geometry" />
        </mxCell>
        <mxCell id="AwUA0kpNcjqZr8ADlNqD-5" value="PAT" style="rounded=0;whiteSpace=wrap;html=1;" vertex="1" parent="1">
          <mxGeometry x="515" y="240" width="80" height="40" as="geometry" />
        </mxCell>
        <mxCell id="AwUA0kpNcjqZr8ADlNqD-119" style="edgeStyle=none;rounded=0;orthogonalLoop=1;jettySize=auto;html=1;exitX=0;exitY=0;exitDx=0;exitDy=0;entryX=0.5;entryY=1;entryDx=0;entryDy=0;strokeColor=default;align=center;verticalAlign=middle;fontFamily=Helvetica;fontSize=11;fontColor=default;labelBackgroundColor=default;endArrow=none;endFill=0;" edge="1" parent="1" source="AwUA0kpNcjqZr8ADlNqD-7" target="AwUA0kpNcjqZr8ADlNqD-116">
          <mxGeometry relative="1" as="geometry" />
        </mxCell>
        <mxCell id="AwUA0kpNcjqZr8ADlNqD-120" style="edgeStyle=none;rounded=0;orthogonalLoop=1;jettySize=auto;html=1;exitX=0;exitY=0;exitDx=0;exitDy=0;entryX=1;entryY=1;entryDx=0;entryDy=0;strokeColor=default;align=center;verticalAlign=middle;fontFamily=Helvetica;fontSize=11;fontColor=default;labelBackgroundColor=default;endArrow=none;endFill=0;" edge="1" parent="1" source="AwUA0kpNcjqZr8ADlNqD-7" target="AwUA0kpNcjqZr8ADlNqD-117">
          <mxGeometry relative="1" as="geometry" />
        </mxCell>
        <mxCell id="AwUA0kpNcjqZr8ADlNqD-121" style="edgeStyle=none;rounded=0;orthogonalLoop=1;jettySize=auto;html=1;exitX=0;exitY=0;exitDx=0;exitDy=0;entryX=1;entryY=0.5;entryDx=0;entryDy=0;strokeColor=default;align=center;verticalAlign=middle;fontFamily=Helvetica;fontSize=11;fontColor=default;labelBackgroundColor=default;endArrow=none;endFill=0;" edge="1" parent="1" source="AwUA0kpNcjqZr8ADlNqD-7" target="AwUA0kpNcjqZr8ADlNqD-118">
          <mxGeometry relative="1" as="geometry" />
        </mxCell>
        <mxCell id="AwUA0kpNcjqZr8ADlNqD-7" value="Orders" style="rounded=0;whiteSpace=wrap;html=1;" vertex="1" parent="1">
          <mxGeometry x="130" y="145" width="80" height="40" as="geometry" />
        </mxCell>
        <mxCell id="AwUA0kpNcjqZr8ADlNqD-36" style="rounded=0;orthogonalLoop=1;jettySize=auto;html=1;exitX=1;exitY=1;exitDx=0;exitDy=0;entryX=0;entryY=0.5;entryDx=0;entryDy=0;endArrow=none;endFill=0;" edge="1" parent="1" source="AwUA0kpNcjqZr8ADlNqD-13" target="AwUA0kpNcjqZr8ADlNqD-34">
          <mxGeometry relative="1" as="geometry" />
        </mxCell>
        <mxCell id="AwUA0kpNcjqZr8ADlNqD-40" style="edgeStyle=orthogonalEdgeStyle;rounded=0;orthogonalLoop=1;jettySize=auto;html=1;entryX=1;entryY=0.5;entryDx=0;entryDy=0;endArrow=none;endFill=0;" edge="1" parent="1" source="AwUA0kpNcjqZr8ADlNqD-13" target="AwUA0kpNcjqZr8ADlNqD-39">
          <mxGeometry relative="1" as="geometry" />
        </mxCell>
        <mxCell id="AwUA0kpNcjqZr8ADlNqD-130" style="edgeStyle=none;rounded=0;orthogonalLoop=1;jettySize=auto;html=1;exitX=0;exitY=0;exitDx=0;exitDy=0;entryX=0.5;entryY=1;entryDx=0;entryDy=0;strokeColor=default;align=center;verticalAlign=middle;fontFamily=Helvetica;fontSize=11;fontColor=default;labelBackgroundColor=default;endArrow=none;endFill=0;" edge="1" parent="1" source="AwUA0kpNcjqZr8ADlNqD-13" target="AwUA0kpNcjqZr8ADlNqD-123">
          <mxGeometry relative="1" as="geometry" />
        </mxCell>
        <mxCell id="AwUA0kpNcjqZr8ADlNqD-131" style="edgeStyle=none;rounded=0;orthogonalLoop=1;jettySize=auto;html=1;exitX=0;exitY=0;exitDx=0;exitDy=0;entryX=0.5;entryY=1;entryDx=0;entryDy=0;strokeColor=default;align=center;verticalAlign=middle;fontFamily=Helvetica;fontSize=11;fontColor=default;labelBackgroundColor=default;endArrow=none;endFill=0;" edge="1" parent="1" source="AwUA0kpNcjqZr8ADlNqD-13" target="AwUA0kpNcjqZr8ADlNqD-126">
          <mxGeometry relative="1" as="geometry" />
        </mxCell>
        <mxCell id="AwUA0kpNcjqZr8ADlNqD-132" style="edgeStyle=none;rounded=0;orthogonalLoop=1;jettySize=auto;html=1;exitX=0;exitY=0;exitDx=0;exitDy=0;entryX=0;entryY=1;entryDx=0;entryDy=0;strokeColor=default;align=center;verticalAlign=middle;fontFamily=Helvetica;fontSize=11;fontColor=default;labelBackgroundColor=default;endArrow=none;endFill=0;" edge="1" parent="1" source="AwUA0kpNcjqZr8ADlNqD-13" target="AwUA0kpNcjqZr8ADlNqD-125">
          <mxGeometry relative="1" as="geometry" />
        </mxCell>
        <mxCell id="AwUA0kpNcjqZr8ADlNqD-13" value="Admin" style="whiteSpace=wrap;html=1;rounded=0;" vertex="1" parent="1">
          <mxGeometry x="385" y="150" width="80" height="30" as="geometry" />
        </mxCell>
        <mxCell id="AwUA0kpNcjqZr8ADlNqD-32" style="edgeStyle=orthogonalEdgeStyle;rounded=0;orthogonalLoop=1;jettySize=auto;html=1;entryX=0.5;entryY=1;entryDx=0;entryDy=0;endArrow=none;endFill=0;" edge="1" parent="1" source="AwUA0kpNcjqZr8ADlNqD-16" target="AwUA0kpNcjqZr8ADlNqD-13">
          <mxGeometry relative="1" as="geometry" />
        </mxCell>
        <mxCell id="AwUA0kpNcjqZr8ADlNqD-33" style="edgeStyle=orthogonalEdgeStyle;rounded=0;orthogonalLoop=1;jettySize=auto;html=1;entryX=0.5;entryY=0;entryDx=0;entryDy=0;endArrow=none;endFill=0;" edge="1" parent="1" source="AwUA0kpNcjqZr8ADlNqD-16" target="AwUA0kpNcjqZr8ADlNqD-3">
          <mxGeometry relative="1" as="geometry" />
        </mxCell>
        <mxCell id="AwUA0kpNcjqZr8ADlNqD-16" value="Create" style="shape=rhombus;perimeter=rhombusPerimeter;whiteSpace=wrap;html=1;align=center;" vertex="1" parent="1">
          <mxGeometry x="370" y="220" width="110" height="60" as="geometry" />
        </mxCell>
        <mxCell id="AwUA0kpNcjqZr8ADlNqD-24" style="edgeStyle=orthogonalEdgeStyle;rounded=0;orthogonalLoop=1;jettySize=auto;html=1;entryX=1;entryY=0.5;entryDx=0;entryDy=0;endArrow=none;endFill=0;" edge="1" parent="1" source="AwUA0kpNcjqZr8ADlNqD-18" target="AwUA0kpNcjqZr8ADlNqD-22">
          <mxGeometry relative="1" as="geometry" />
        </mxCell>
        <mxCell id="AwUA0kpNcjqZr8ADlNqD-26" style="edgeStyle=orthogonalEdgeStyle;rounded=0;orthogonalLoop=1;jettySize=auto;html=1;entryX=0.5;entryY=1;entryDx=0;entryDy=0;endArrow=none;endFill=0;" edge="1" parent="1" source="AwUA0kpNcjqZr8ADlNqD-18" target="AwUA0kpNcjqZr8ADlNqD-25">
          <mxGeometry relative="1" as="geometry" />
        </mxCell>
        <mxCell id="AwUA0kpNcjqZr8ADlNqD-37" style="rounded=0;orthogonalLoop=1;jettySize=auto;html=1;exitX=0;exitY=0;exitDx=0;exitDy=0;entryX=1;entryY=0.5;entryDx=0;entryDy=0;endArrow=none;endFill=0;" edge="1" parent="1" source="AwUA0kpNcjqZr8ADlNqD-18" target="AwUA0kpNcjqZr8ADlNqD-34">
          <mxGeometry relative="1" as="geometry" />
        </mxCell>
        <mxCell id="AwUA0kpNcjqZr8ADlNqD-48" style="edgeStyle=orthogonalEdgeStyle;rounded=0;orthogonalLoop=1;jettySize=auto;html=1;entryX=1;entryY=0.5;entryDx=0;entryDy=0;endArrow=none;endFill=0;" edge="1" parent="1" source="AwUA0kpNcjqZr8ADlNqD-18" target="AwUA0kpNcjqZr8ADlNqD-47">
          <mxGeometry relative="1" as="geometry">
            <Array as="points">
              <mxPoint x="710" y="410" />
            </Array>
          </mxGeometry>
        </mxCell>
        <mxCell id="AwUA0kpNcjqZr8ADlNqD-72" style="edgeStyle=none;rounded=0;orthogonalLoop=1;jettySize=auto;html=1;exitX=1;exitY=1;exitDx=0;exitDy=0;entryX=0.5;entryY=0;entryDx=0;entryDy=0;strokeColor=default;align=center;verticalAlign=middle;fontFamily=Helvetica;fontSize=11;fontColor=default;labelBackgroundColor=default;endArrow=none;endFill=0;" edge="1" parent="1" source="AwUA0kpNcjqZr8ADlNqD-18" target="AwUA0kpNcjqZr8ADlNqD-71">
          <mxGeometry relative="1" as="geometry" />
        </mxCell>
        <mxCell id="AwUA0kpNcjqZr8ADlNqD-73" style="edgeStyle=none;rounded=0;orthogonalLoop=1;jettySize=auto;html=1;exitX=1;exitY=1;exitDx=0;exitDy=0;entryX=0;entryY=0;entryDx=0;entryDy=0;strokeColor=default;align=center;verticalAlign=middle;fontFamily=Helvetica;fontSize=11;fontColor=default;labelBackgroundColor=default;endArrow=none;endFill=0;" edge="1" parent="1" source="AwUA0kpNcjqZr8ADlNqD-18" target="AwUA0kpNcjqZr8ADlNqD-70">
          <mxGeometry relative="1" as="geometry" />
        </mxCell>
        <mxCell id="AwUA0kpNcjqZr8ADlNqD-74" style="edgeStyle=none;rounded=0;orthogonalLoop=1;jettySize=auto;html=1;exitX=1;exitY=1;exitDx=0;exitDy=0;entryX=0;entryY=0.5;entryDx=0;entryDy=0;strokeColor=default;align=center;verticalAlign=middle;fontFamily=Helvetica;fontSize=11;fontColor=default;labelBackgroundColor=default;endArrow=none;endFill=0;" edge="1" parent="1" source="AwUA0kpNcjqZr8ADlNqD-18" target="AwUA0kpNcjqZr8ADlNqD-69">
          <mxGeometry relative="1" as="geometry" />
        </mxCell>
        <mxCell id="AwUA0kpNcjqZr8ADlNqD-75" style="edgeStyle=none;rounded=0;orthogonalLoop=1;jettySize=auto;html=1;exitX=1;exitY=1;exitDx=0;exitDy=0;entryX=0;entryY=0.5;entryDx=0;entryDy=0;strokeColor=default;align=center;verticalAlign=middle;fontFamily=Helvetica;fontSize=11;fontColor=default;labelBackgroundColor=default;endArrow=none;endFill=0;" edge="1" parent="1" source="AwUA0kpNcjqZr8ADlNqD-18" target="AwUA0kpNcjqZr8ADlNqD-68">
          <mxGeometry relative="1" as="geometry" />
        </mxCell>
        <mxCell id="AwUA0kpNcjqZr8ADlNqD-76" style="edgeStyle=none;rounded=0;orthogonalLoop=1;jettySize=auto;html=1;exitX=1;exitY=1;exitDx=0;exitDy=0;entryX=0;entryY=0.5;entryDx=0;entryDy=0;strokeColor=default;align=center;verticalAlign=middle;fontFamily=Helvetica;fontSize=11;fontColor=default;labelBackgroundColor=default;endArrow=none;endFill=0;" edge="1" parent="1" source="AwUA0kpNcjqZr8ADlNqD-18" target="AwUA0kpNcjqZr8ADlNqD-67">
          <mxGeometry relative="1" as="geometry" />
        </mxCell>
        <mxCell id="AwUA0kpNcjqZr8ADlNqD-18" value="Farmer" style="whiteSpace=wrap;html=1;rounded=0;" vertex="1" parent="1">
          <mxGeometry x="670" y="315" width="80" height="30" as="geometry" />
        </mxCell>
        <mxCell id="AwUA0kpNcjqZr8ADlNqD-23" style="edgeStyle=orthogonalEdgeStyle;rounded=0;orthogonalLoop=1;jettySize=auto;html=1;entryX=1;entryY=0.5;entryDx=0;entryDy=0;endArrow=none;endFill=0;" edge="1" parent="1" source="AwUA0kpNcjqZr8ADlNqD-22" target="AwUA0kpNcjqZr8ADlNqD-3">
          <mxGeometry relative="1" as="geometry" />
        </mxCell>
        <mxCell id="AwUA0kpNcjqZr8ADlNqD-22" value="purchase" style="shape=rhombus;perimeter=rhombusPerimeter;whiteSpace=wrap;html=1;align=center;" vertex="1" parent="1">
          <mxGeometry x="510" y="300" width="110" height="60" as="geometry" />
        </mxCell>
        <mxCell id="AwUA0kpNcjqZr8ADlNqD-27" style="edgeStyle=orthogonalEdgeStyle;rounded=0;orthogonalLoop=1;jettySize=auto;html=1;entryX=0.5;entryY=1;entryDx=0;entryDy=0;endArrow=none;endFill=0;" edge="1" parent="1" source="AwUA0kpNcjqZr8ADlNqD-25" target="AwUA0kpNcjqZr8ADlNqD-4">
          <mxGeometry relative="1" as="geometry" />
        </mxCell>
        <mxCell id="AwUA0kpNcjqZr8ADlNqD-25" value="create" style="shape=rhombus;perimeter=rhombusPerimeter;whiteSpace=wrap;html=1;align=center;" vertex="1" parent="1">
          <mxGeometry x="655" y="200" width="110" height="60" as="geometry" />
        </mxCell>
        <mxCell id="AwUA0kpNcjqZr8ADlNqD-31" style="edgeStyle=orthogonalEdgeStyle;rounded=0;orthogonalLoop=1;jettySize=auto;html=1;entryX=0;entryY=0.5;entryDx=0;entryDy=0;endArrow=none;endFill=0;" edge="1" parent="1" source="AwUA0kpNcjqZr8ADlNqD-28" target="AwUA0kpNcjqZr8ADlNqD-4">
          <mxGeometry relative="1" as="geometry" />
        </mxCell>
        <mxCell id="AwUA0kpNcjqZr8ADlNqD-28" value="purchase" style="shape=rhombus;perimeter=rhombusPerimeter;whiteSpace=wrap;html=1;align=center;" vertex="1" parent="1">
          <mxGeometry x="510" y="70" width="110" height="60" as="geometry" />
        </mxCell>
        <mxCell id="AwUA0kpNcjqZr8ADlNqD-30" style="edgeStyle=orthogonalEdgeStyle;rounded=0;orthogonalLoop=1;jettySize=auto;html=1;entryX=0;entryY=0.5;entryDx=0;entryDy=0;endArrow=none;endFill=0;" edge="1" parent="1" source="AwUA0kpNcjqZr8ADlNqD-29" target="AwUA0kpNcjqZr8ADlNqD-28">
          <mxGeometry relative="1" as="geometry" />
        </mxCell>
        <mxCell id="AwUA0kpNcjqZr8ADlNqD-35" style="rounded=0;orthogonalLoop=1;jettySize=auto;html=1;exitX=1;exitY=1;exitDx=0;exitDy=0;entryX=0.5;entryY=0;entryDx=0;entryDy=0;endArrow=none;endFill=0;" edge="1" parent="1" source="AwUA0kpNcjqZr8ADlNqD-29" target="AwUA0kpNcjqZr8ADlNqD-34">
          <mxGeometry relative="1" as="geometry" />
        </mxCell>
        <mxCell id="AwUA0kpNcjqZr8ADlNqD-52" style="rounded=0;orthogonalLoop=1;jettySize=auto;html=1;entryX=1;entryY=0.5;entryDx=0;entryDy=0;endArrow=none;endFill=0;" edge="1" parent="1" source="AwUA0kpNcjqZr8ADlNqD-29" target="AwUA0kpNcjqZr8ADlNqD-50">
          <mxGeometry relative="1" as="geometry" />
        </mxCell>
        <mxCell id="AwUA0kpNcjqZr8ADlNqD-110" style="edgeStyle=none;rounded=0;orthogonalLoop=1;jettySize=auto;html=1;exitX=1;exitY=0;exitDx=0;exitDy=0;entryX=0;entryY=1;entryDx=0;entryDy=0;strokeColor=default;align=center;verticalAlign=middle;fontFamily=Helvetica;fontSize=11;fontColor=default;labelBackgroundColor=default;endArrow=none;endFill=0;" edge="1" parent="1" source="AwUA0kpNcjqZr8ADlNqD-29" target="AwUA0kpNcjqZr8ADlNqD-109">
          <mxGeometry relative="1" as="geometry" />
        </mxCell>
        <mxCell id="AwUA0kpNcjqZr8ADlNqD-111" style="edgeStyle=none;rounded=0;orthogonalLoop=1;jettySize=auto;html=1;exitX=1;exitY=0;exitDx=0;exitDy=0;entryX=0;entryY=0.5;entryDx=0;entryDy=0;strokeColor=default;align=center;verticalAlign=middle;fontFamily=Helvetica;fontSize=11;fontColor=default;labelBackgroundColor=default;endArrow=none;endFill=0;" edge="1" parent="1" source="AwUA0kpNcjqZr8ADlNqD-29" target="AwUA0kpNcjqZr8ADlNqD-108">
          <mxGeometry relative="1" as="geometry" />
        </mxCell>
        <mxCell id="AwUA0kpNcjqZr8ADlNqD-112" style="edgeStyle=none;rounded=0;orthogonalLoop=1;jettySize=auto;html=1;exitX=1;exitY=0;exitDx=0;exitDy=0;entryX=0.5;entryY=1;entryDx=0;entryDy=0;strokeColor=default;align=center;verticalAlign=middle;fontFamily=Helvetica;fontSize=11;fontColor=default;labelBackgroundColor=default;endArrow=none;endFill=0;" edge="1" parent="1" source="AwUA0kpNcjqZr8ADlNqD-29" target="AwUA0kpNcjqZr8ADlNqD-107">
          <mxGeometry relative="1" as="geometry" />
        </mxCell>
        <mxCell id="AwUA0kpNcjqZr8ADlNqD-113" style="edgeStyle=none;rounded=0;orthogonalLoop=1;jettySize=auto;html=1;exitX=1;exitY=0;exitDx=0;exitDy=0;entryX=1;entryY=1;entryDx=0;entryDy=0;strokeColor=default;align=center;verticalAlign=middle;fontFamily=Helvetica;fontSize=11;fontColor=default;labelBackgroundColor=default;endArrow=none;endFill=0;" edge="1" parent="1" source="AwUA0kpNcjqZr8ADlNqD-29" target="AwUA0kpNcjqZr8ADlNqD-105">
          <mxGeometry relative="1" as="geometry" />
        </mxCell>
        <mxCell id="AwUA0kpNcjqZr8ADlNqD-115" style="edgeStyle=none;rounded=0;orthogonalLoop=1;jettySize=auto;html=1;exitX=1;exitY=0;exitDx=0;exitDy=0;entryX=0.5;entryY=1;entryDx=0;entryDy=0;strokeColor=default;align=center;verticalAlign=middle;fontFamily=Helvetica;fontSize=11;fontColor=default;labelBackgroundColor=default;endArrow=none;endFill=0;" edge="1" parent="1" source="AwUA0kpNcjqZr8ADlNqD-29" target="AwUA0kpNcjqZr8ADlNqD-106">
          <mxGeometry relative="1" as="geometry" />
        </mxCell>
        <mxCell id="AwUA0kpNcjqZr8ADlNqD-29" value="Customer" style="whiteSpace=wrap;html=1;rounded=0;" vertex="1" parent="1">
          <mxGeometry x="385" y="85" width="80" height="30" as="geometry" />
        </mxCell>
        <mxCell id="AwUA0kpNcjqZr8ADlNqD-38" style="edgeStyle=orthogonalEdgeStyle;rounded=0;orthogonalLoop=1;jettySize=auto;html=1;entryX=0.5;entryY=0;entryDx=0;entryDy=0;endArrow=none;endFill=0;" edge="1" parent="1" source="AwUA0kpNcjqZr8ADlNqD-34" target="AwUA0kpNcjqZr8ADlNqD-5">
          <mxGeometry relative="1" as="geometry" />
        </mxCell>
        <mxCell id="AwUA0kpNcjqZr8ADlNqD-34" value="generates" style="shape=rhombus;perimeter=rhombusPerimeter;whiteSpace=wrap;html=1;align=center;" vertex="1" parent="1">
          <mxGeometry x="500" y="160" width="110" height="60" as="geometry" />
        </mxCell>
        <mxCell id="AwUA0kpNcjqZr8ADlNqD-41" style="edgeStyle=orthogonalEdgeStyle;rounded=0;orthogonalLoop=1;jettySize=auto;html=1;entryX=0.5;entryY=0;entryDx=0;entryDy=0;endArrow=none;endFill=0;" edge="1" parent="1" source="AwUA0kpNcjqZr8ADlNqD-39" target="AwUA0kpNcjqZr8ADlNqD-1">
          <mxGeometry relative="1" as="geometry" />
        </mxCell>
        <mxCell id="AwUA0kpNcjqZr8ADlNqD-45" style="edgeStyle=orthogonalEdgeStyle;rounded=0;orthogonalLoop=1;jettySize=auto;html=1;entryX=1;entryY=0.5;entryDx=0;entryDy=0;endArrow=none;endFill=0;" edge="1" parent="1" source="AwUA0kpNcjqZr8ADlNqD-39" target="AwUA0kpNcjqZr8ADlNqD-7">
          <mxGeometry relative="1" as="geometry" />
        </mxCell>
        <mxCell id="AwUA0kpNcjqZr8ADlNqD-39" value="Manages" style="shape=rhombus;perimeter=rhombusPerimeter;whiteSpace=wrap;html=1;align=center;" vertex="1" parent="1">
          <mxGeometry x="250" y="135" width="110" height="60" as="geometry" />
        </mxCell>
        <mxCell id="AwUA0kpNcjqZr8ADlNqD-49" style="edgeStyle=orthogonalEdgeStyle;rounded=0;orthogonalLoop=1;jettySize=auto;html=1;entryX=0.5;entryY=1;entryDx=0;entryDy=0;endArrow=none;endFill=0;" edge="1" parent="1" source="AwUA0kpNcjqZr8ADlNqD-47" target="AwUA0kpNcjqZr8ADlNqD-7">
          <mxGeometry relative="1" as="geometry" />
        </mxCell>
        <mxCell id="AwUA0kpNcjqZr8ADlNqD-47" value="Manages" style="shape=rhombus;perimeter=rhombusPerimeter;whiteSpace=wrap;html=1;align=center;" vertex="1" parent="1">
          <mxGeometry x="510" y="380" width="110" height="60" as="geometry" />
        </mxCell>
        <mxCell id="AwUA0kpNcjqZr8ADlNqD-122" style="edgeStyle=none;rounded=0;orthogonalLoop=1;jettySize=auto;html=1;exitX=0;exitY=0.5;exitDx=0;exitDy=0;entryX=0.5;entryY=0;entryDx=0;entryDy=0;strokeColor=default;align=center;verticalAlign=middle;fontFamily=Helvetica;fontSize=11;fontColor=default;labelBackgroundColor=default;endArrow=none;endFill=0;" edge="1" parent="1" source="AwUA0kpNcjqZr8ADlNqD-50" target="AwUA0kpNcjqZr8ADlNqD-7">
          <mxGeometry relative="1" as="geometry" />
        </mxCell>
        <mxCell id="AwUA0kpNcjqZr8ADlNqD-50" value="Creates" style="shape=rhombus;perimeter=rhombusPerimeter;whiteSpace=wrap;html=1;align=center;" vertex="1" parent="1">
          <mxGeometry x="190" y="70" width="110" height="60" as="geometry" />
        </mxCell>
        <mxCell id="AwUA0kpNcjqZr8ADlNqD-53" value="id" style="ellipse;whiteSpace=wrap;html=1;align=center;fontStyle=4" vertex="1" parent="1">
          <mxGeometry x="620" y="10" width="100" height="40" as="geometry" />
        </mxCell>
        <mxCell id="AwUA0kpNcjqZr8ADlNqD-54" value="title" style="ellipse;whiteSpace=wrap;html=1;align=center;" vertex="1" parent="1">
          <mxGeometry x="730" y="10" width="100" height="40" as="geometry" />
        </mxCell>
        <mxCell id="AwUA0kpNcjqZr8ADlNqD-55" value="Price&lt;span style=&quot;color: rgba(0, 0, 0, 0); font-family: monospace; font-size: 0px; text-align: start; text-wrap: nowrap;&quot;&gt;%3CmxGraphModel%3E%3Croot%3E%3CmxCell%20id%3D%220%22%2F%3E%3CmxCell%20id%3D%221%22%20parent%3D%220%22%2F%3E%3CmxCell%20id%3D%222%22%20value%3D%22title%22%20style%3D%22ellipse%3BwhiteSpace%3Dwrap%3Bhtml%3D1%3Balign%3Dcenter%3B%22%20vertex%3D%221%22%20parent%3D%221%22%3E%3CmxGeometry%20x%3D%22730%22%20y%3D%2210%22%20width%3D%22100%22%20height%3D%2240%22%20as%3D%22geometry%22%2F%3E%3C%2FmxCell%3E%3C%2Froot%3E%3C%2FmxGraphModel%3E&lt;/span&gt;" style="ellipse;whiteSpace=wrap;html=1;align=center;" vertex="1" parent="1">
          <mxGeometry x="810" y="60" width="100" height="40" as="geometry" />
        </mxCell>
        <mxCell id="AwUA0kpNcjqZr8ADlNqD-56" value="discount" style="ellipse;whiteSpace=wrap;html=1;align=center;" vertex="1" parent="1">
          <mxGeometry x="830" y="105" width="100" height="40" as="geometry" />
        </mxCell>
        <mxCell id="AwUA0kpNcjqZr8ADlNqD-57" value="image" style="ellipse;whiteSpace=wrap;html=1;align=center;" vertex="1" parent="1">
          <mxGeometry x="800" y="155" width="100" height="40" as="geometry" />
        </mxCell>
        <mxCell id="AwUA0kpNcjqZr8ADlNqD-58" value="status" style="ellipse;whiteSpace=wrap;html=1;align=center;" vertex="1" parent="1">
          <mxGeometry x="840" y="10" width="100" height="40" as="geometry" />
        </mxCell>
        <mxCell id="AwUA0kpNcjqZr8ADlNqD-67" value="id" style="ellipse;whiteSpace=wrap;html=1;align=center;fontStyle=4" vertex="1" parent="1">
          <mxGeometry x="780" y="250" width="100" height="40" as="geometry" />
        </mxCell>
        <mxCell id="AwUA0kpNcjqZr8ADlNqD-68" value="name" style="ellipse;whiteSpace=wrap;html=1;align=center;" vertex="1" parent="1">
          <mxGeometry x="820" y="305" width="100" height="40" as="geometry" />
        </mxCell>
        <mxCell id="AwUA0kpNcjqZr8ADlNqD-69" value="email" style="ellipse;whiteSpace=wrap;html=1;align=center;" vertex="1" parent="1">
          <mxGeometry x="820" y="360" width="100" height="40" as="geometry" />
        </mxCell>
        <mxCell id="AwUA0kpNcjqZr8ADlNqD-70" value="password" style="ellipse;whiteSpace=wrap;html=1;align=center;" vertex="1" parent="1">
          <mxGeometry x="800" y="420" width="100" height="40" as="geometry" />
        </mxCell>
        <mxCell id="AwUA0kpNcjqZr8ADlNqD-71" value="status" style="ellipse;whiteSpace=wrap;html=1;align=center;" vertex="1" parent="1">
          <mxGeometry x="720" y="460" width="100" height="40" as="geometry" />
        </mxCell>
        <mxCell id="AwUA0kpNcjqZr8ADlNqD-88" style="edgeStyle=none;rounded=0;orthogonalLoop=1;jettySize=auto;html=1;exitX=1;exitY=0.5;exitDx=0;exitDy=0;entryX=0;entryY=1;entryDx=0;entryDy=0;strokeColor=default;align=center;verticalAlign=middle;fontFamily=Helvetica;fontSize=11;fontColor=default;labelBackgroundColor=default;endArrow=none;endFill=0;" edge="1" parent="1" source="AwUA0kpNcjqZr8ADlNqD-82" target="AwUA0kpNcjqZr8ADlNqD-3">
          <mxGeometry relative="1" as="geometry" />
        </mxCell>
        <mxCell id="AwUA0kpNcjqZr8ADlNqD-82" value="id" style="ellipse;whiteSpace=wrap;html=1;align=center;fontStyle=4" vertex="1" parent="1">
          <mxGeometry x="270" y="300" width="100" height="40" as="geometry" />
        </mxCell>
        <mxCell id="AwUA0kpNcjqZr8ADlNqD-83" value="title" style="ellipse;whiteSpace=wrap;html=1;align=center;" vertex="1" parent="1">
          <mxGeometry x="265" y="360" width="100" height="40" as="geometry" />
        </mxCell>
        <mxCell id="AwUA0kpNcjqZr8ADlNqD-84" value="Price&lt;span style=&quot;color: rgba(0, 0, 0, 0); font-family: monospace; font-size: 0px; text-align: start; text-wrap: nowrap;&quot;&gt;%3CmxGraphModel%3E%3Croot%3E%3CmxCell%20id%3D%220%22%2F%3E%3CmxCell%20id%3D%221%22%20parent%3D%220%22%2F%3E%3CmxCell%20id%3D%222%22%20value%3D%22title%22%20style%3D%22ellipse%3BwhiteSpace%3Dwrap%3Bhtml%3D1%3Balign%3Dcenter%3B%22%20vertex%3D%221%22%20parent%3D%221%22%3E%3CmxGeometry%20x%3D%22730%22%20y%3D%2210%22%20width%3D%22100%22%20height%3D%2240%22%20as%3D%22geometry%22%2F%3E%3C%2FmxCell%3E%3C%2Froot%3E%3C%2FmxGraphModel%3E&lt;/span&gt;" style="ellipse;whiteSpace=wrap;html=1;align=center;" vertex="1" parent="1">
          <mxGeometry x="415" y="420" width="100" height="40" as="geometry" />
        </mxCell>
        <mxCell id="AwUA0kpNcjqZr8ADlNqD-85" value="discount" style="ellipse;whiteSpace=wrap;html=1;align=center;" vertex="1" parent="1">
          <mxGeometry x="300" y="420" width="100" height="40" as="geometry" />
        </mxCell>
        <mxCell id="AwUA0kpNcjqZr8ADlNqD-86" value="image" style="ellipse;whiteSpace=wrap;html=1;align=center;" vertex="1" parent="1">
          <mxGeometry x="360" y="460" width="100" height="40" as="geometry" />
        </mxCell>
        <mxCell id="AwUA0kpNcjqZr8ADlNqD-87" value="status" style="ellipse;whiteSpace=wrap;html=1;align=center;" vertex="1" parent="1">
          <mxGeometry x="415" y="360" width="100" height="40" as="geometry" />
        </mxCell>
        <mxCell id="AwUA0kpNcjqZr8ADlNqD-100" style="edgeStyle=none;rounded=0;orthogonalLoop=1;jettySize=auto;html=1;entryX=0;entryY=0.5;entryDx=0;entryDy=0;strokeColor=default;align=center;verticalAlign=middle;fontFamily=Helvetica;fontSize=11;fontColor=default;labelBackgroundColor=default;endArrow=none;endFill=0;" edge="1" parent="1" source="AwUA0kpNcjqZr8ADlNqD-96" target="AwUA0kpNcjqZr8ADlNqD-1">
          <mxGeometry relative="1" as="geometry" />
        </mxCell>
        <mxCell id="AwUA0kpNcjqZr8ADlNqD-96" value="id" style="ellipse;whiteSpace=wrap;html=1;align=center;fontStyle=4" vertex="1" parent="1">
          <mxGeometry x="50" y="210" width="100" height="40" as="geometry" />
        </mxCell>
        <mxCell id="AwUA0kpNcjqZr8ADlNqD-101" style="edgeStyle=none;rounded=0;orthogonalLoop=1;jettySize=auto;html=1;exitX=1;exitY=0.5;exitDx=0;exitDy=0;entryX=0;entryY=0.5;entryDx=0;entryDy=0;strokeColor=default;align=center;verticalAlign=middle;fontFamily=Helvetica;fontSize=11;fontColor=default;labelBackgroundColor=default;endArrow=none;endFill=0;" edge="1" parent="1" source="AwUA0kpNcjqZr8ADlNqD-97" target="AwUA0kpNcjqZr8ADlNqD-1">
          <mxGeometry relative="1" as="geometry" />
        </mxCell>
        <mxCell id="AwUA0kpNcjqZr8ADlNqD-97" value="title" style="ellipse;whiteSpace=wrap;html=1;align=center;" vertex="1" parent="1">
          <mxGeometry x="50" y="260" width="100" height="40" as="geometry" />
        </mxCell>
        <mxCell id="AwUA0kpNcjqZr8ADlNqD-103" style="edgeStyle=none;rounded=0;orthogonalLoop=1;jettySize=auto;html=1;exitX=1;exitY=0.5;exitDx=0;exitDy=0;entryX=0;entryY=0.5;entryDx=0;entryDy=0;strokeColor=default;align=center;verticalAlign=middle;fontFamily=Helvetica;fontSize=11;fontColor=default;labelBackgroundColor=default;endArrow=none;endFill=0;" edge="1" parent="1" source="AwUA0kpNcjqZr8ADlNqD-98" target="AwUA0kpNcjqZr8ADlNqD-1">
          <mxGeometry relative="1" as="geometry" />
        </mxCell>
        <mxCell id="AwUA0kpNcjqZr8ADlNqD-98" value="url" style="ellipse;whiteSpace=wrap;html=1;align=center;" vertex="1" parent="1">
          <mxGeometry x="50" y="305" width="100" height="40" as="geometry" />
        </mxCell>
        <mxCell id="AwUA0kpNcjqZr8ADlNqD-104" style="edgeStyle=none;rounded=0;orthogonalLoop=1;jettySize=auto;html=1;exitX=1;exitY=0.5;exitDx=0;exitDy=0;entryX=0;entryY=0.5;entryDx=0;entryDy=0;strokeColor=default;align=center;verticalAlign=middle;fontFamily=Helvetica;fontSize=11;fontColor=default;labelBackgroundColor=default;endArrow=none;endFill=0;" edge="1" parent="1" source="AwUA0kpNcjqZr8ADlNqD-99" target="AwUA0kpNcjqZr8ADlNqD-1">
          <mxGeometry relative="1" as="geometry" />
        </mxCell>
        <mxCell id="AwUA0kpNcjqZr8ADlNqD-99" value="image" style="ellipse;whiteSpace=wrap;html=1;align=center;" vertex="1" parent="1">
          <mxGeometry x="50" y="360" width="100" height="40" as="geometry" />
        </mxCell>
        <mxCell id="AwUA0kpNcjqZr8ADlNqD-105" value="id" style="ellipse;whiteSpace=wrap;html=1;align=center;fontStyle=4" vertex="1" parent="1">
          <mxGeometry x="420" y="-60" width="100" height="40" as="geometry" />
        </mxCell>
        <mxCell id="AwUA0kpNcjqZr8ADlNqD-106" value="name" style="ellipse;whiteSpace=wrap;html=1;align=center;" vertex="1" parent="1">
          <mxGeometry x="375" y="-20" width="100" height="40" as="geometry" />
        </mxCell>
        <mxCell id="AwUA0kpNcjqZr8ADlNqD-107" value="email" style="ellipse;whiteSpace=wrap;html=1;align=center;" vertex="1" parent="1">
          <mxGeometry x="515" y="-80" width="100" height="40" as="geometry" />
        </mxCell>
        <mxCell id="AwUA0kpNcjqZr8ADlNqD-108" value="password" style="ellipse;whiteSpace=wrap;html=1;align=center;" vertex="1" parent="1">
          <mxGeometry x="550" y="-30" width="100" height="40" as="geometry" />
        </mxCell>
        <mxCell id="AwUA0kpNcjqZr8ADlNqD-109" value="status" style="ellipse;whiteSpace=wrap;html=1;align=center;" vertex="1" parent="1">
          <mxGeometry x="520" y="20" width="100" height="40" as="geometry" />
        </mxCell>
        <mxCell id="AwUA0kpNcjqZr8ADlNqD-116" value="id" style="ellipse;whiteSpace=wrap;html=1;align=center;" vertex="1" parent="1">
          <mxGeometry x="80" y="60" width="100" height="40" as="geometry" />
        </mxCell>
        <mxCell id="AwUA0kpNcjqZr8ADlNqD-117" value="Subtotal" style="ellipse;whiteSpace=wrap;html=1;align=center;" vertex="1" parent="1">
          <mxGeometry x="20" y="95" width="100" height="40" as="geometry" />
        </mxCell>
        <mxCell id="AwUA0kpNcjqZr8ADlNqD-118" value="delivery charge" style="ellipse;whiteSpace=wrap;html=1;align=center;" vertex="1" parent="1">
          <mxGeometry x="-20" y="140" width="100" height="40" as="geometry" />
        </mxCell>
        <mxCell id="AwUA0kpNcjqZr8ADlNqD-123" value="id" style="ellipse;whiteSpace=wrap;html=1;align=center;fontStyle=4" vertex="1" parent="1">
          <mxGeometry x="150" y="-30" width="100" height="40" as="geometry" />
        </mxCell>
        <mxCell id="AwUA0kpNcjqZr8ADlNqD-125" value="email" style="ellipse;whiteSpace=wrap;html=1;align=center;" vertex="1" parent="1">
          <mxGeometry x="260" y="-20" width="100" height="40" as="geometry" />
        </mxCell>
        <mxCell id="AwUA0kpNcjqZr8ADlNqD-126" value="password" style="ellipse;whiteSpace=wrap;html=1;align=center;" vertex="1" parent="1">
          <mxGeometry x="325" y="30" width="100" height="40" as="geometry" />
        </mxCell>
        <mxCell id="AwUA0kpNcjqZr8ADlNqD-133" value="id" style="ellipse;whiteSpace=wrap;html=1;align=center;fontStyle=4" vertex="1" parent="1">
          <mxGeometry x="80" y="60" width="100" height="40" as="geometry" />
        </mxCell>
      </root>
    </mxGraphModel>
  </diagram>
</mxfile>
